<?xml version="1.0" encoding="utf-8"?>
<!-- Generator: Adobe Illustrator 24.1.1, SVG Export Plug-In . SVG Version: 6.00 Build 0)  -->
<svg version="1.1" id="Layer_1" xmlns="http://www.w3.org/2000/svg" xmlns:xlink="http://www.w3.org/1999/xlink" x="0px" y="0px"
	 viewBox="0 0 805 600" style="enable-background:new 0 0 805 600;" xml:space="preserve">
<style type="text/css">
	.st0{fill:#00CC33;}
	.st1{fill:#8EED5F;}
	.st2{fill:#FF99CC;}
	.st3{fill:#990033;}
	.st4{fill:#FFFFFF;}
	.st5{font-family:'ArialMT';}
	.st6{font-size:9px;}
	.st7{enable-background:new    ;}
</style>
<g id="viz" transform="translate(20,20)">
	<g id="nodes">
		<g id="Vitacura" transform="translate(348.060776198156,282.04993318435714)">
			<path id="p_668.4974329400538" class="st0" d="M1,39.4c-21.8,0-39.4-17.6-39.4-39.4S-20.8-39.4,1-39.4c0,0,0,0,0,0
				c21.8,0,39.4,17.6,39.4,39.4S22.8,39.4,1,39.4C1,39.4,1,39.4,1,39.4z"/>
		</g>
		<g id="Las_Condes" transform="translate(429.42146258700996,282.04993318435714)">
			<path id="p_749.5836076053001" class="st0" d="M1,39.1c-21.6,0-39.1-17.5-39.1-39.1c0-21.6,17.5-39.1,39.1-39.1c0,0,0,0,0,0
				c21.6,0,39.1,17.5,39.1,39.1C40.1,21.6,22.6,39.1,1,39.1C1,39.1,1,39.1,1,39.1z"/>
		</g>
		<g id="La_Reina" transform="translate(389.0114964887732,351.09132667660975)">
			<path id="p_777.1268564053007" class="st0" d="M1,38c-21,0-38-17-38-38s17-38,38-38S39-21,39,0S22,38,1,38z"/>
		</g>
		<g id="Lo_Barnechea" transform="translate(389.0102521355324,213.43694563314835)">
			<path id="p_639.1024255075091" class="st0" d="M1,37.7c-20.8,0-37.7-16.9-37.7-37.7S-19.8-37.7,1-37.7S38.7-20.8,38.7,0
				S21.8,37.7,1,37.7z"/>
		</g>
		<g id="Providencia" transform="translate(310.94695527351087,211.3810308467165)">
			<path id="p_558.9013723631708" class="st0" d="M1,37.6c-20.8,0-37.6-16.8-37.6-37.6S-19.8-37.6,1-37.6S38.6-20.8,38.6,0
				S21.8,37.6,1,37.6z"/>
		</g>
		<g id="Ñuñoa" transform="translate(311.2506833105952,352.0968797458284)">
			<path id="p_699.2290933098968" class="st0" d="M1,36.9c-20.4,0-36.9-16.5-36.9-36.9S-19.4-36.9,1-36.9c0,0,0,0,0,0
				c20.4,0,36.9,16.5,36.9,36.9S21.4,36.9,1,36.9C1,36.9,1,36.9,1,36.9z"/>
		</g>
		<g id="Macul" transform="translate(465.1745343471704,213.1524635575861)">
			<path id="p_712.9748326644486" class="st0" d="M1,35.6c-19.7,0-35.6-16-35.6-35.6s16-35.6,35.6-35.6S36.6-19.7,36.6,0
				S20.7,35.6,1,35.6z"/>
		</g>
		<g id="Santiago" transform="translate(464.769709338213,350.28865290293925)">
			<path id="p_848.9350429804373" class="st0" d="M1,34.9c-19.3,0-34.9-15.6-34.9-34.9S-18.3-34.9,1-34.9S35.9-19.3,35.9,0
				S20.3,34.9,1,34.9z"/>
		</g>
		<g id="San_Miguel" transform="translate(505.58690677655454,290.49534600170205)">
			<path id="p_829.740527851405" class="st0" d="M1,34.7c-19.1,0-34.7-15.5-34.7-34.7S-18.1-34.7,1-34.7S35.7-19.1,35.7,0
				S20.1,34.7,1,34.7z"/>
		</g>
		<g id="La_Florida" transform="translate(536.8369581733542,225.86240401407295)">
			<path id="p_795.9705814207575" class="st1" d="M0,34.3c-18.9,0-34.3-15.3-34.3-34.3c0-18.9,15.3-34.3,34.3-34.3c0,0,0,0,0,0
				c18.9,0,34.3,15.3,34.3,34.3C34.3,18.9,18.9,34.3,0,34.3C0,34.3,0,34.3,0,34.3z"/>
		</g>
		<g id="Maipú" transform="translate(272.2938354893649,274.8312963905973)">
			<path id="p_579.9866962261593" class="st1" d="M0,33.9c-18.7,0-33.9-15.2-33.9-33.9c0-18.7,15.2-33.9,33.9-33.9c0,0,0,0,0,0
				c18.7,0,33.9,15.2,33.9,33.9C33.9,18.7,18.7,33.9,0,33.9C0,33.9,0,33.9,0,33.9z"/>
		</g>
		<g id="Quilicura" transform="translate(239.17981109886927,337.1631407421723)">
			<path id="p_609.201485662836" class="st0" d="M1,33.9c-18.7,0-33.9-15.2-33.9-33.9S-17.7-33.9,1-33.9S34.9-18.7,34.9,0
				S19.7,33.9,1,33.9z"/>
		</g>
		<g id="Huechuraba" transform="translate(428.7909298379049,150.6516072852491)">
			<path id="p_612.2525456117767" class="st1" d="M0,33.8c-18.7,0-33.8-15.1-33.8-33.8S-18.7-33.8,0-33.8S33.8-18.7,33.8,0
				S18.7,33.8,0,33.8z"/>
		</g>
		<g id="Peñaflor" transform="translate(430.58015441574764,412.9282796443973)">
			<path id="p_876.1327972806945" class="st2" d="M0,33.6c-18.6,0-33.6-15.1-33.6-33.6S-18.6-33.6,0-33.6S33.6-18.6,33.6,0
				S18.6,33.6,0,33.6z"/>
		</g>
		<g id="Peñalolén" transform="translate(351.5516096397119,149.7418904182724)">
			<path id="p_533.6697548175146" class="st1" d="M0,33.4c-18.4,0-33.4-14.9-33.4-33.4S-18.4-33.4,0-33.4S33.4-18.4,33.4,0
				S18.4,33.4,0,33.4z"/>
		</g>
		<g id="Colina" transform="translate(349.8577844468817,413.9898916668347)">
			<path id="p_796.0513151734647" class="st1" d="M0,33.2c-18.3,0-33.2-14.9-33.2-33.2S-18.3-33.2,0-33.2S33.2-18.3,33.2,0
				S18.3,33.2,0,33.2z"/>
		</g>
		<g id="La_Granja" transform="translate(390.4581905794753,92.88255749936326)">
			<path id="p_514.9990831565885" class="st3" d="M0,32.7C-18,32.7-32.7,18-32.7,0S-18-32.7,0-32.7S32.7-18,32.7,0S18,32.7,0,32.7z"
				/>
		</g>
		<g id="San_Joaquin" transform="translate(535.0312337678788,354.16687816127626)">
			<path id="p_920.8281564182469" class="st1" d="M0,32.6C-18,32.6-32.6,18-32.6,0C-32.6-18-18-32.6,0-32.6c0,0,0,0,0,0
				C18-32.6,32.6-18,32.6,0C32.6,18,18,32.6,0,32.6C0,32.6,0,32.6,0,32.6z"/>
		</g>
		<g id="La_Cisterna" transform="translate(390.5933986619044,469.20641162419975)">
			<path id="p_891.3511407982163" class="st1" d="M0,32.6C-18,32.6-32.6,18-32.6,0S-18-32.6,0-32.6S32.6-18,32.6,0S18,32.6,0,32.6z"
				/>
		</g>
		<g id="Recoleta" transform="translate(238.03572418772194,214.62397458338205)">
			<path id="p_484.207876764637" class="st3" d="M0,32.5C-18,32.6-32.6,18-32.6,0S-18-32.5,0-32.5c0,0,0,0,0,0
				C18-32.6,32.6-18,32.6,0S18,32.5,0,32.5C0,32.5,0,32.5,0,32.5z"/>
		</g>
		<g id="Lampa" transform="translate(499.485522219249,412.03908423643605)">
			<path id="p_942.9495971527786" class="st2" d="M0,32.4c-17.9,0-32.4-14.5-32.4-32.4S-17.9-32.4,0-32.4c0,0,0,0,0,0
				c17.9,0,32.4,14.5,32.4,32.4S17.9,32.4,0,32.4C0,32.4,0,32.4,0,32.4z"/>
		</g>
		<g id="Pudahuel" transform="translate(497.84841886291326,150.23392813114762)">
			<path id="p_679.469339642128" class="st2" d="M0,32.4c-17.9,0-32.4-14.5-32.4-32.4S-17.9-32.4,0-32.4c0,0,0,0,0,0
				c17.9,0,32.4,14.5,32.4,32.4S17.9,32.4,0,32.4C0,32.4,0,32.4,0,32.4z"/>
		</g>
		<g id="San_Bernardo" transform="translate(281.54579576098456,417.78833132667705)">
			<path id="p_730.6862489852336" class="st3" d="M0,32.4c-17.9,0-32.4-14.5-32.4-32.3c0-17.9,14.5-32.4,32.3-32.4c0,0,0,0,0,0
				c17.9,0,32.4,14.5,32.4,32.3C32.4,17.9,17.9,32.3,0,32.4C0,32.4,0,32.4,0,32.4z"/>
		</g>
		<g id="Talagante" transform="translate(283.3239380023911,144.18671353856294)">
			<path id="p_458.72609834280735" class="st3" d="M0,32.2c-17.8,0-32.2-14.4-32.2-32.2S-17.8-32.2,0-32.2S32.2-17.8,32.2,0
				S17.8,32.2,0,32.2z"/>
		</g>
		<g id="Estación_Central" transform="translate(564.0303821137313,162.27995223601485)">
			<path id="p_757.3308924434107" class="st1" d="M0,32c-17.7,0-32-14.3-32-32s14.3-32,32-32S32-17.7,32,0S17.7,32,0,32z"/>
		</g>
		<g id="Independencia" transform="translate(216.37472701544968,401.85766698661394)">
			<path id="p_649.1084180197688" class="st2" d="M0,31.9c-17.6,0-31.9-14.3-31.9-31.9c0-17.6,14.3-31.9,31.9-31.9c0,0,0,0,0,0
				c17.6,0,31.9,14.3,31.9,31.9C31.9,17.6,17.6,31.9,0,31.9C0,31.9,0,31.9,0,31.9z"/>
		</g>
		<g id="Puente_Alto" transform="translate(574.3283571176086,283.448027556948)">
			<path id="p_888.3581074404602" class="st3" d="M0,31.6c-17.4,0-31.6-14.1-31.6-31.6S-17.4-31.6,0-31.6S31.6-17.4,31.6,0
				S17.4,31.6,0,31.6z"/>
		</g>
		<g id="El_Bosque" transform="translate(204.11094901893952,278.57410055478204)">
			<path id="p_513.2472714283705" class="st3" d="M0,31.6c-17.4,0-31.6-14.1-31.6-31.6S-17.4-31.6,0-31.6c0,0,0,0,0,0
				c17.4,0,31.6,14.1,31.6,31.6S17.4,31.6,0,31.6C0,31.6,0,31.6,0,31.6z"/>
		</g>
		<g id="Padre_Hurtado" transform="translate(217.07528281875594,151.0540348472925)">
			<path id="p_398.6557565212614" class="st3" d="M0,31.5c-17.4,0-31.5-14.1-31.5-31.5S-17.4-31.5,0-31.5S31.5-17.4,31.5,0
				S17.4,31.5,0,31.5z"/>
		</g>
		<g id="Cerrillos" transform="translate(601.0040524059623,343.5662214555265)">
			<path id="p_974.8975379437253" class="st3" d="M0,31.3c-17.3,0-31.3-14-31.3-31.3c0-17.3,14-31.3,31.3-31.3c0,0,0,0,0,0
				c17.3,0,31.3,14,31.3,31.3C31.3,17.3,17.3,31.3,0,31.3C0,31.3,0,31.3,0,31.3z"/>
		</g>
		<g id="P.A.C" transform="translate(171.6710609505992,221.41264385124214)">
			<path id="p_423.38475359573573" class="st3" d="M0,31.3c-17.3,0-31.3-14-31.3-31.3s14-31.3,31.3-31.3S31.3-17.3,31.3,0
				S17.3,31.3,0,31.3z"/>
		</g>
		<g id="Melipilla" transform="translate(466.9416922873845,469.97039890448826)">
			<path id="p_967.0718549420272" class="st3" d="M0,31.2c-17.2,0-31.2-14-31.2-31.2s14-31.2,31.2-31.2S31.2-17.2,31.2,0
				S17.2,31.2,0,31.2z"/>
		</g>
		<g id="Paine" transform="translate(464.3541383770824,92.9366975888035)">
			<path id="p_587.411056852711" class="st3" d="M0,31.1c-17.2,0-31.1-13.9-31.1-31.1S-17.2-31.1,0-31.1S31.1-17.2,31.1,0
				S17.2,31.1,0,31.1z"/>
		</g>
		<g id="Lo_Prado" transform="translate(318.0497700564533,473.0601632010369)">
			<path id="p_821.1343841495402" class="st3" d="M0,31c-17.1,0-31-13.9-31-31s13.9-31,31-31c0,0,0,0,0,0c17.1,0,31,13.9,31,31
				S17.1,31,0,31C0,31,0,31,0,31z"/>
		</g>
		<g id="Renca" transform="translate(320.9491138991029,89.9186394633119)">
			<path id="p_440.8259833659557" class="st3" d="M0,31c-17.1,0-31-13.9-31-31s13.9-31,31-31S31-17.1,31,0S17.1,31,0,31z"/>
		</g>
		<g id="Conchalí" transform="translate(355.83970783805233,525.6812566800326)">
			<path id="p_911.4194743781278" class="st3" d="M0,30.9c-17.1,0-30.9-13.8-30.9-30.9S-17.1-30.9,0-30.9S30.9-17.1,30.9,0
				S17.1,30.9,0,30.9z"/>
		</g>
		<g id="Buin" transform="translate(429.42937201432375,522.9352847268849)">
			<path id="p_982.2465571769153" class="st3" d="M0,30.9c-17.1,0-30.9-13.8-30.9-30.9S-17.1-30.9,0-30.9S30.9-17.1,30.9,0
				S17.1,30.9,0,30.9z"/>
		</g>
		<g id="Quinta_Normal" transform="translate(356.46487773975366,36.05112053271503)">
			<path id="p_422.217944373294" class="st3" d="M0,30.7C-17,30.7-30.7,17-30.7,0S-17-30.7,0-30.7S30.7-17,30.7,0S17,30.7,0,30.7z"
				/>
		</g>
		<g id="Cerro_Navia" transform="translate(428.782145621473,40.35064691216152)">
			<path id="p_497.63829496028427" class="st3" d="M0,29.5c-16.3,0-29.5-13.2-29.5-29.5S-16.3-29.5,0-29.5c0,0,0,0,0,0
				c16.3,0,29.5,13.2,29.5,29.5S16.3,29.5,0,29.5C0,29.5,0,29.5,0,29.5z"/>
		</g>
		<g id="San_Ramón" transform="translate(563.8255820002305,411.9333771518027)">
			<path id="p_1003.8123640738676" class="st3" d="M0,29.1c-16,0-29.1-13-29.1-29s13-29.1,29-29.1c0,0,0,0,0,0c16,0,29.1,13,29.1,29
				S16.1,29.1,0,29.1C0,29.1,0,29.1,0,29.1z"/>
		</g>
		<g id="Lo_Espejo" transform="translate(174.32665402206712,333.69109608231446)">
			<path id="p_535.2434973191073" class="st3" d="M0,28.2c-15.6,0-28.2-12.6-28.2-28.2c0-15.6,12.6-28.2,28.2-28.2c0,0,0,0,0,0
				c15.6,0,28.2,12.6,28.2,28.2C28.2,15.6,15.6,28.2,0,28.2C0,28.2,0,28.2,0,28.2z"/>
		</g>
		<g id="La_Pintana" transform="translate(601.9054103714104,227.4736662292605)">
			<path id="p_856.3345050088639" class="st3" d="M0,28c-15.4,0-28-12.5-28-28s12.5-28,28-28c0,0,0,0,0,0c15.4,0,28,12.5,28,28
				S15.4,28,0,28C0,28,0,28,0,28z"/>
		</g>
	</g>
	<g id="labels">
		<g transform="translate(348.060776198156,282.04993318435714)">
			<text transform="matrix(1 0 0 1 -12.5122 -11.6362)" class="st4 st5 st6">75.59</text>
			<text transform="matrix(1 0 0 1 -17.6411 0.3638)" class="st4 st5 st6">Vitacura</text>
		</g>
		<g transform="translate(429.42146258700996,282.04993318435714)">
			<text transform="matrix(1 0 0 1 -10.5122 -11.6362)" class="st4 st5 st6">74.54</text>
			<text transform="matrix(1 0 0 1 -24.3398 0.3638)" class="st4 st5 st6">Las Condes</text>
		</g>
		<g transform="translate(389.0114964887732,351.09132667660975)">
			<text transform="matrix(1 0 0 1 -12.5122 -11.6363)" class="st4 st5 st6">70.45</text>
			<text transform="matrix(1 0 0 1 -20.8399 2.3637)" class="st4 st5 st6">La Reina</text>
		</g>
		<g transform="translate(389.0102521355324,213.43694563314835)">
			<text transform="matrix(1 0 0 1 -10.5122 -11.6362)" class="st4 st5 st6">69.09</text>
			<text transform="matrix(1 0 0 1 -29.0664 2.3638)" class="st4 st5 st6">Lo Barnechea</text>
		</g>
		<g transform="translate(310.94695527351087,211.3810308467165)">
			<text transform="matrix(1 0 0 1 -11.5122 -11.6363)" class="st4 st5 st6">68.79</text>
			<text transform="matrix(1 0 0 1 -23.3447 0.3637)" class="st4 st5 st6">Providencia</text>
		</g>
		<g transform="translate(311.2506833105952,352.0968797458284)">
			<text transform="matrix(1 0 0 1 -11.5122 -11.6362)" class="st4 st5 st6">66.28</text>
			<text transform="matrix(1 0 0 1 -13.5542 3.3638)" class="st4 st5 st6">Ñuñoa</text>
		</g>
		<g transform="translate(465.1745343471704,213.1524635575861)">
			<text transform="matrix(1 0 0 1 -11.5122 -11.6362)" class="st4 st5 st6">61.92</text>
			<text transform="matrix(1 0 0 1 -12.1699 1.3638)" class="st4 st5 st6">Macul</text>
		</g>
		<g transform="translate(464.769709338213,350.28865290293925)">
			<text transform="matrix(1 0 0 1 -10.5122 -11.6362)" class="st4 st5 st6">59.27</text>
			<text transform="matrix(1 0 0 1 -18.1133 0.3638)" class="st4 st5 st6">Santiago</text>
		</g>
		<g transform="translate(505.58690677655454,290.49534600170205)">
			<text transform="matrix(1 0 0 1 -11.5122 -11.6362)" class="st4 st5 st6">58.53</text>
			<text transform="matrix(1 0 0 1 -22.3916 0.3638)" class="st4 st5 st6">San Miguel</text>
		</g>
		<g transform="translate(536.8369581733542,225.86240401407295)">
			<text transform="matrix(1 0 0 1 -11.5122 -11.6362)" class="st4 st5 st6">57.23</text>
			<text transform="matrix(1 0 0 1 -19.8916 1.3638)" class="st4 st5 st6">La Florida</text>
		</g>
		<g transform="translate(272.2938354893649,274.8312963905973)">
			<text transform="matrix(1 0 0 1 -11.5122 -11.6362)" class="st4 st5 st6">55.87</text>
			<text transform="matrix(1 0 0 1 -13.4434 2.3638)" class="st4 st5 st6">Maipú</text>
		</g>
		<g transform="translate(239.17981109886927,337.1631407421723)">
			<text transform="matrix(1 0 0 1 -12.5122 -11.6363)" class="st4 st5 st6">55.86</text>
			<text transform="matrix(1 0 0 1 -18.6724 1.3637)" class="st4 st5 st6">Quilicura</text>
		</g>
		<g transform="translate(428.7909298379049,150.6516072852491)">
			<text transform="matrix(1 0 0 1 -8.7315 -11.6362)" class="st4 st5 st6">55.7</text>
			<text transform="matrix(1 0 0 1 -23.8965 0.3638)" class="st4 st5 st6">Huechuraba</text>
		</g>
		<g transform="translate(430.58015441574764,412.9282796443973)">
			<text transform="matrix(1 0 0 1 -11.5122 -11.6363)" class="st4 st5 st6">55.09</text>
			<text transform="matrix(1 0 0 1 -17.0049 2.3637)" class="st4 st5 st6">Peñaflor</text>
		</g>
		<g transform="translate(351.5516096397119,149.7418904182724)">
			<text transform="matrix(1 0 0 1 -11.5122 -11.6362)" class="st4 st5 st6">54.28</text>
			<text transform="matrix(1 0 0 1 -20.6181 0.3638)" class="st4 st5 st6">Peñalolén</text>
		</g>
		<g transform="translate(349.8577844468817,413.9898916668347)">
			<text transform="matrix(1 0 0 1 -11.5122 -11.6363)" class="st4 st5 st6">53.72</text>
			<text transform="matrix(1 0 0 1 -13.2783 2.3637)" class="st4 st5 st6">Colina</text>
		</g>
		<g transform="translate(390.4581905794753,92.88255749936326)">
			<text transform="matrix(1 0 0 1 -12.5122 -11.6362)" class="st4 st5 st6">51.97</text>
			<text transform="matrix(1 0 0 1 -20.064 0.3638)" class="st4 st5 st6">La Granja</text>
		</g>
		<g transform="translate(535.0312337678788,354.16687816127626)">
			<text transform="matrix(1 0 0 1 -12.5122 -11.6362)" class="st4 st5 st6">51.88</text>
			<text transform="matrix(1 0 0 1 -24.7266 1.3638)" class="st4 st5 st6">San Joaquin</text>
		</g>
		<g transform="translate(390.5933986619044,469.20641162419975)">
			<text transform="matrix(1 0 0 1 -11.5122 -11.6362)" class="st4 st5 st6">51.63</text>
			<text transform="matrix(1 0 0 1 -23.2314 1.3638)" class="st4 st5 st6">La Cisterna</text>
		</g>
		<g transform="translate(238.03572418772194,214.62397458338205)">
			<text transform="matrix(1 0 0 1 -11.5122 -11.6362)" class="st4 st5 st6">51.62</text>
			<text transform="matrix(1 0 0 1 -17.8423 2.3638)" class="st4 st5 st6">Recoleta</text>
		</g>
		<g transform="translate(499.485522219249,412.03908423643605)">
			<text transform="matrix(1 0 0 1 -11.5122 -11.6363)" class="st4 st5 st6">51.23</text>
			<text transform="matrix(1 0 0 1 -14.1157 1.3637)" class="st4 st5 st6">Lampa</text>
		</g>
		<g transform="translate(497.84841886291326,150.23392813114762)">
			<text transform="matrix(1 0 0 1 -10.1411 -11.6363)" class="st4 st5 st6">51.11</text>
			<text transform="matrix(1 0 0 1 -19.5025 0.3637)" class="st4 st5 st6">Pudahuel</text>
		</g>
		<g transform="translate(281.54579576098456,417.78833132667705)">
			<text transform="matrix(1 0 0 1 -5.5615 -11.6362)" class="st4 st5 st6">51</text>
			<text transform="matrix(1 0 0 1 -27.7856 2.3638)" class="st4 st5 st6">San Bernardo</text>
		</g>
		<g transform="translate(283.3239380023911,144.18671353856294)">
			<text transform="matrix(1 0 0 1 -12.5122 -11.6362)" class="st4 st5 st6">50.57</text>
			<text transform="matrix(1 0 0 1 -19.9688 3.3638)" class="st4 st5 st6">Talagante</text>
		</g>
		<g transform="translate(564.0303821137313,162.27995223601485)">
			<text transform="matrix(1 0 0 1 -12.5122 -11.6363)" class="st4 st5 st6">49.96</text>
			<text transform="matrix(1 0 0 1 -17.7153 0.3637)" class="st7"><tspan x="0" y="0" class="st4 st5 st6">Estación</tspan><tspan x="2.8" y="10.8" class="st4 st5 st6">Central</tspan></text>
		</g>
		<g transform="translate(216.37472701544968,401.85766698661394)">
			<text transform="matrix(1 0 0 1 -12.5122 -11.6362)" class="st4 st5 st6">49.51</text>
			<text transform="matrix(1 0 0 1 -30.0073 2.3638)" class="st4 st5 st6">Independencia</text>
		</g>
		<g transform="translate(574.3283571176086,283.448027556948)">
			<text transform="matrix(1 0 0 1 -9.7314 -11.6363)" class="st4 st5 st6">48.6</text>
			<text transform="matrix(1 0 0 1 -22.5928 1.3637)" class="st4 st5 st6">Puente Alto</text>
		</g>
		<g transform="translate(204.11094901893952,278.57410055478204)">
			<text transform="matrix(1 0 0 1 -11.5122 -11.6362)" class="st4 st5 st6">48.54</text>
			<text transform="matrix(1 0 0 1 -21.4482 2.3638)" class="st4 st5 st6">El Bosque</text>
		</g>
		<g transform="translate(217.07528281875594,151.0540348472925)">
			<text transform="matrix(1 0 0 1 -12.5122 -11.6362)" class="st4 st5 st6">48.43</text>
			<text transform="matrix(1 0 0 1 -13.4585 0.3638)" class="st7"><tspan x="0" y="0" class="st4 st5 st6">Padre</tspan><tspan x="-4" y="10.8" class="st4 st5 st6">Hurtado</tspan></text>
		</g>
		<g transform="translate(601.0040524059623,343.5662214555265)">
			<text transform="matrix(1 0 0 1 -11.5122 -10.6363)" class="st4 st5 st6">47.82</text>
			<text transform="matrix(1 0 0 1 -16.2856 1.3637)" class="st4 st5 st6">Cerrillos</text>
		</g>
		<g transform="translate(171.6710609505992,221.41264385124214)">
			<text transform="matrix(1 0 0 1 -13.5122 -6.6363)" class="st4 st5 st6">47.74</text>
			<text transform="matrix(1 0 0 1 -13.6904 5.3637)" class="st4 st5 st6">P.A.C</text>
		</g>
		<g transform="translate(466.9416922873845,469.97039890448826)">
			<text transform="matrix(1 0 0 1 -11.5122 -11.6362)" class="st4 st5 st6">47.31</text>
			<text transform="matrix(1 0 0 1 -16.7266 1.3638)" class="st4 st5 st6">Melipilla</text>
		</g>
		<g transform="translate(464.3541383770824,92.9366975888035)">
			<text transform="matrix(1 0 0 1 -10.5122 -11.6363)" class="st4 st5 st6">47.19</text>
			<text transform="matrix(1 0 0 1 -11.3398 0.3637)" class="st4 st5 st6">Paine</text>
		</g>
		<g transform="translate(318.0497700564533,473.0601632010369)">
			<text transform="matrix(1 0 0 1 -9.7314 -11.6362)" class="st4 st5 st6">46.9</text>
			<text transform="matrix(1 0 0 1 -19.6674 0.3638)" class="st4 st5 st6">Lo Prado</text>
		</g>
		<g transform="translate(320.9491138991029,89.9186394633119)">
			<text transform="matrix(1 0 0 1 -9.7315 -11.6362)" class="st4 st5 st6">46.7</text>
			<text transform="matrix(1 0 0 1 -15.0074 0.3638)" class="st4 st5 st6">Renca</text>
		</g>
		<g transform="translate(355.83970783805233,525.6812566800326)">
			<text transform="matrix(1 0 0 1 -10.5122 -11.6362)" class="st4 st5 st6">46.52</text>
			<text transform="matrix(1 0 0 1 -18.1133 2.3638)" class="st4 st5 st6">Conchalí</text>
		</g>
		<g transform="translate(429.42937201432375,522.9352847268849)">
			<text transform="matrix(1 0 0 1 -10.5122 -11.6362)" class="st4 st5 st6">46.47</text>
			<text transform="matrix(1 0 0 1 -9.1084 2.3638)" class="st4 st5 st6">Buin</text>
		</g>
		<g transform="translate(356.46487773975366,36.05112053271503)">
			<text transform="matrix(1 0 0 1 -12.5122 -11.6362)" class="st4 st5 st6">45.93</text>
			<text transform="matrix(1 0 0 1 -15.0296 -3.453289e-02)" class="st7"><tspan x="0" y="0" class="st4 st5 st6">Quinta </tspan><tspan x="0" y="10.8" class="st4 st5 st6">Normal</tspan></text>
		</g>
		<g transform="translate(428.782145621473,40.35064691216152)">
			<text transform="matrix(1 0 0 1 -12.5122 -11.6363)" class="st4 st5 st6">42.42</text>
			<text transform="matrix(1 0 0 1 -11.252 0.3635)" class="st7"><tspan x="0" y="0" class="st4 st5 st6">Cerro</tspan><tspan x="-0.3" y="10.8" class="st4 st5 st6">Navia</tspan></text>
		</g>
		<g transform="translate(563.8255820002305,411.9333771518027)">
			<text transform="matrix(1 0 0 1 -11.5122 -11.6363)" class="st4 st5 st6">41.13</text>
			<text transform="matrix(1 0 0 1 -8.5117 0.3637)" class="st7"><tspan x="0" y="0" class="st4 st5 st6">San</tspan><tspan x="-6.5" y="10.8" class="st4 st5 st6">Ramón</tspan></text>
		</g>
		<g transform="translate(174.32665402206712,333.69109608231446)">
			<text transform="matrix(1 0 0 1 -12.5122 -10.6362)" class="st4 st5 st6">38.82</text>
			<text transform="matrix(1 0 0 1 -20.8916 3.3638)" class="st4 st5 st6">Lo Espejo</text>
		</g>
		<g transform="translate(601.9054103714104,227.4736662292605)">
			<text transform="matrix(1 0 0 1 -12.5122 -11.6363)" class="st4 st5 st6">38.08</text>
			<text transform="matrix(1 0 0 1 -5.2886 0.3637)" class="st7"><tspan x="0" y="0" class="st4 st5 st6">La</tspan><tspan x="-10.3" y="10.8" class="st4 st5 st6">Pintana</tspan></text>
		</g>
	</g>
</g>
</svg>
